<?xml version="1.0" encoding="utf-8"?><svg version="1.1" id="Layer_1" xmlns="http://www.w3.org/2000/svg" xmlns:xlink="http://www.w3.org/1999/xlink" x="0px" y="0px" viewBox="0 0 122.88 121.52" style="enable-background:new 0 0 122.88 121.52" xml:space="preserve"><style type="text/css">.st0{fill-rule:evenodd;clip-rule:evenodd;}</style><g><path class="st0" d="M28.84,26.32l0.13,8.96h2.18c0.13,19.75,7.17,33.26,16.37,39.74c3.92,2.76,8.23,4.25,12.59,4.42 c4.37,0.17,8.76-0.98,12.83-3.51c9.43-5.86,17.13-19.18,18.54-40.65h2.55V25.8l-1.94,0.52c-6.42-35.34-53.67-34.86-60.49,0H28.84 L28.84,26.32z M38.27,76.85c-0.74,2.19,23.17,22.34,44.82,0c6.36,5.72,21.14,6.87,28.15,10.78c2.21,1.23,4.22,2.81,5.83,4.93 c4.44,5.86,4.73,15.38,5.81,22.67c-0.36,3.78-2.5,5.96-6.73,6.29H61.9H6.73c-4.23-0.32-6.37-2.5-6.73-6.29 c1.08-7.29,1.38-16.81,5.81-22.67c1.61-2.13,3.61-3.7,5.83-4.93C18.65,83.73,31.91,82.58,38.27,76.85L38.27,76.85z M33.46,36.68 L60.4,39.5h2.16l26.53-2.87c0.04-0.45,0.07-0.89,0.1-1.35H33.44C33.44,35.76,33.45,36.22,33.46,36.68L33.46,36.68z M88.04,44.91 c-8.6,8.83-17.74,9.08-26.6-0.92c-9.63,9.96-18.96,10.66-27.49-0.37c0.46,3.82,1.2,7.33,2.19,10.53c2.33,0.71,4.13,9.95,11.55,5.6 c8.74-2.7,17.72-2.75,26.96,0c6.58,3.9,8.25-2.94,10.45-3.83C86.31,52.65,87.31,48.98,88.04,44.91L88.04,44.91z M69.72,46.19 c-1.05-0.89-1.95-2.02-2.71-3.41l16.06-2.52c0.46-0.07,1.15-0.28,1.53,0.1c0.19,0.19,0.18,0.5-0.01,0.9 C81.7,47.14,75.52,51.11,69.72,46.19L69.72,46.19z M53.14,46.19c1.05-0.89,1.95-2.02,2.71-3.41l-16.06-2.52 c-0.46-0.07-1.15-0.28-1.53,0.1c-0.19,0.19-0.18,0.5,0.01,0.9C41.16,47.14,47.34,51.11,53.14,46.19L53.14,46.19z M61.66,63.49 c5.38,0,9.73,1.69,9.73,3.77c0,2.08-4.36,3.77-9.73,3.77c-5.38,0-9.73-1.69-9.73-3.77C51.93,65.18,56.29,63.49,61.66,63.49 L61.66,63.49z"/></g></svg>